<?xml version="1.0" encoding="UTF-8"?>
<svg width="79px" height="55px" viewBox="0 0 79 55" version="1.1" xmlns="http://www.w3.org/2000/svg" xmlns:xlink="http://www.w3.org/1999/xlink">
    <g stroke="none" stroke-width="1" fill="none" fill-rule="evenodd">
        <g transform="translate(-184.000000, -524.000000)">
            <g transform="translate(40.000000, 124.000000)">
                <g transform="translate(144.000000, 400.000000)">
                    <g transform="translate(26.500000, 9.000000)" fill="#ffffff" fill-rule="nonzero">
                        <path d="M11.9999046,10 C13.3783459,10 14.5,8.87853677 14.5,7.50009545 C14.5,6.12146323 13.3783459,5 11.9999046,5 C10.6214632,5 9.5,6.12146323 9.5,7.50009545 C9.5,8.87853677 10.6214632,10 11.9999046,10 Z M11.9999046,6.46626445 C12.5699912,6.46626445 13.0337355,6.9300088 13.0337355,7.50009545 C13.0337355,8.0699912 12.5699912,8.53373555 11.9999046,8.53373555 C11.4300088,8.53373555 10.9662645,8.0699912 10.9662645,7.50009545 C10.9662645,6.9300088 11.4300088,6.46626445 11.9999046,6.46626445 Z"></path>
                        <path d="M25.5506287,0 L1.44937131,0 C0.925888074,0 0.5,0.420178993 0.5,0.936644876 L0.5,21.0633551 C0.5,21.579821 0.925888074,22 1.44937131,22 L25.5506287,22 C26.0741119,22 26.5,21.579821 26.5,21.0633551 L26.5,0.936644876 C26.5,0.420178993 26.0741119,0 25.5506287,0 Z M24.9765625,1.50301564 L24.9765625,13.3971925 L20.1852722,8.66993433 C19.8728485,8.36228581 19.3648377,8.36248151 19.0526123,8.67052146 L12.2762909,15.3560054 L7.9477844,11.0857188 C7.79643251,10.9362001 7.59509277,10.8538082 7.38085938,10.8538082 C7.16682433,10.8538082 6.965683,10.9360044 6.81433105,11.0853275 L2.0234375,15.8119985 L2.0234375,1.50301564 L24.9765625,1.50301564 Z M2.0234375,20.4969844 L2.0234375,17.9375522 L7.38085938,12.6519473 L11.7091675,16.9222339 C11.8607178,17.0717526 12.0620575,17.1543402 12.2762909,17.1543402 C12.4901276,17.1543402 12.6914673,17.0719483 12.8426209,16.9226253 L19.6191406,10.2369456 L24.9767609,15.5227462 L24.9767609,20.4969844 L2.0234375,20.4969844 Z"></path>
                    </g>
                    <rect stroke="#ffffff" stroke-width="2" x="22" y="5" width="36" height="44"></rect>
                    <rect fill="#ffffff" x="29" y="35" width="22" height="3"></rect>
                    <rect fill="#ffffff" x="34" y="40" width="12" height="3"></rect>
                </g>
            </g>
        </g>
    </g>
</svg>