<svg xmlns="http://www.w3.org/2000/svg" viewBox="0 0 40 40"><defs><style>.cls-1{fill:none;}</style></defs><title>account</title><g id="Ebene_2" data-name="Ebene 2"><g id="Ebene_1-2" data-name="Ebene 1"><rect class="cls-1" width="40" height="40"/><path d="M30.21,24.43a15,15,0,0,0-5.68-3.56,8.64,8.64,0,1,0-9.78,0,15,15,0,0,0-5.68,3.56A14.87,14.87,0,0,0,4.7,35H7a12.61,12.61,0,0,1,25.22,0h2.34A14.88,14.88,0,0,0,30.21,24.43ZM19.64,20.06A6.31,6.31,0,1,1,26,13.75,6.31,6.31,0,0,1,19.64,20.06Z"/></g></g></svg>