<svg xmlns="http://www.w3.org/2000/svg" viewBox="0 0 40 40"><defs><style>.cls-1{fill:none;}</style></defs><title>globe</title><g id="Ebene_2" data-name="Ebene 2"><g id="Ebene_1-2" data-name="Ebene 1"><rect class="cls-1" width="40" height="40"/><polygon points="27.01 11.12 27.04 11.36 26.68 11.43 26.63 11.94 27.06 11.94 27.63 11.88 27.92 11.53 27.61 11.41 27.44 11.21 27.18 10.8 27.06 10.21 26.58 10.31 26.44 10.52 26.44 10.75 26.68 10.91 27.01 11.12"/><polygon points="26.6 11.31 26.62 10.99 26.34 10.87 25.94 10.96 25.65 11.44 25.65 11.74 25.99 11.74 26.6 11.31"/><path d="M18.47,12.66l-.09.22H18v.22h.1l0,.11.25,0,.16-.1.05-.21h.21l.08-.17-.19,0Z"/><polygon points="17.38 13.05 17.37 13.27 17.67 13.24 17.7 13.03 17.52 12.88 17.38 13.05"/><path d="M35.68,19.83a12.94,12.94,0,0,0-.07-1.39,15.83,15.83,0,0,0-1.06-4.35l-.12-.31a16,16,0,0,0-3-4.63l-.25-.26c-.24-.25-.48-.49-.73-.72a16,16,0,0,0-21.59.07,15.08,15.08,0,0,0-1.83,2,16,16,0,1,0,28.21,13.5c.08-.31.14-.62.2-.94a16.2,16.2,0,0,0,.25-2.8C35.69,19.94,35.68,19.89,35.68,19.83Zm-3-6.39.1-.1c.12.23.23.47.34.72H33l-.29,0Zm-2.31-2.79V9.93c.25.27.5.54.73.83l-.29.43h-1L29.73,11ZM11.06,8.87v0h.32l0-.1h.52V9l-.15.21h-.72v-.3Zm.51.72.35-.06s0,.32,0,.32l-.72.05-.14-.17Zm22.12,6.35H32.52l-.71-.53-.75.07v.46h-.24l-.26-.19-1.3-.33v-.84l-1.65.13L27.1,15h-.65l-.32,0-.8.44v.83l-1.62,1.17.14.51h.33l-.09.47-.23.09,0,1.24,1.41,1.6h.61l0-.1H27l.32-.29h.62l.34.34.93.1-.12,1.23,1,1.82-.54,1,0,.48.43.43v1.17l.56.76v1h.49a14.67,14.67,0,0,1-24.9-15V13.8l.52-.64c.18-.35.38-.68.59-1l0,.27-.61.74c-.19.35-.36.72-.52,1.09v.84l.61.29v1.16l.58,1,.48.08.06-.35-.56-.86-.11-.84h.33l.14.86.81,1.19L8.31,18l.51.79,1.29.31v-.2l.51.07,0,.37.4.07.62.17.88,1,1.12.09.11.91-.76.54,0,.81-.11.5,1.11,1.4.09.47s.4.11.45.11.9.65.9.65v2.51l.31.09-.21,1.16.51.68-.09,1.15.67,1.19.87.76.88,0,.08-.29-.64-.54,0-.27.11-.32,0-.34h-.44l-.22-.28.36-.35,0-.26-.4-.11,0-.25.58-.08.87-.42.29-.54.92-1.17-.21-.92L20,27l.84,0,.57-.45.18-1.76.63-.8.11-.52-.57-.18-.38-.62H20.09l-1-.39,0-.74L18.67,21l-.93,0-.53-.84-.48-.23,0,.26-.87.05-.32-.44-.9-.19-.74.86-1.18-.2-.08-1.32-.86-.14.35-.65-.1-.37-1.12.75-.71-.09-.25-.55.15-.57.39-.72.9-.45H13.1v.53l.63.29L13.67,16l.45-.45L15,15l.06-.42L16,13.6l1-.53L16.86,13l.65-.61.24.06.11.14.25-.28.06,0-.27,0-.28-.09v-.27l.15-.12h.32l.15.07.12.25.16,0v0h0L19,12l.07-.22.25.07v.24l-.24.16h0l0,.26.82.25h.19v-.36l-.65-.29,0-.17.54-.18,0-.52-.56-.34,0-.86-.77.37h-.28l.07-.65-1-.25L17,9.83v1l-.78.25-.31.65-.34.06v-.84l-.73-.1-.36-.24-.15-.53,1.31-.77.64-.2.06.43h.36l0-.22.37-.05V9.17l-.16-.07,0-.22.46,0,.27-.29,0,0h0l.09-.09,1-.12.43.36L18,9.28l1.42.33.19-.47h.62l.22-.42L20,8.61V8.09l-1.38-.61-.95.11-.54.28,0,.68-.56-.08-.09-.38.54-.49-1,0-.28.09L15.68,8l.37.06L16,8.39l-.62,0-.1.24-.9,0a2.22,2.22,0,0,0-.06-.51l.71,0,.54-.52-.3-.15-.39.38-.65,0-.39-.53H13L12.12,8h.79l.07.24-.2.19.88,0,.13.32-1,0-.05-.24-.62-.14-.33-.18h-.74A14.66,14.66,0,0,1,29.38,9l-.17.32-.68.26-.29.31.07.36.35,0,.21.53.6-.24.1.7h-.18l-.49-.07-.55.09-.53.75-.76.12-.11.65.32.07-.1.42-.75-.15-.69.15-.15.39.12.8.41.19h.68l.46,0,.14-.37.72-.93.47.1.47-.42.08.32,1.15.78-.14.19-.52,0,.2.28.32.07.37-.16V14l.17-.09-.13-.14-.77-.42-.2-.57h.64l.2.2.55.47,0,.57.57.61.21-.83.39-.22.08.68.38.42h.76a12.23,12.23,0,0,1,.4,1.16ZM12.42,11.27l.38-.18.35.08-.12.47-.38.12Zm2,1.1v.3h-.87l-.33-.09.08-.21.42-.18h.58v.18Zm.41.42v.29l-.22.14-.27,0v-.48Zm-.25-.12v-.35l.3.28Zm.14.7v.29l-.21.21h-.47l.08-.32.22,0,0-.11Zm-1.16-.58h.48l-.62.87-.26-.14.06-.37Zm2,.48v.29h-.46L15,13.37v-.26h0Zm-.43-.39.13-.14.23.14-.18.15Zm18.79,3.8,0-.06c0,.09,0,.17.05.25Z"/><path d="M6.18,13.8v.45c.16-.37.33-.74.52-1.09Z"/></g></g></svg>