<svg xmlns="http://www.w3.org/2000/svg" viewBox="0 0 40 40"><defs><style>.cls-1{fill:none;}</style></defs><title>wishlist</title><g id="Ebene_2" data-name="Ebene 2"><g id="Ebene_1-2" data-name="Ebene 1"><rect class="cls-1" width="40" height="40"/><path d="M19.19,36a1.16,1.16,0,0,0,1.62,0l12.7-12.61A10,10,0,0,0,20,8.7,10,10,0,0,0,6.5,23.42ZM8.12,10.91a7.6,7.6,0,0,1,5.49-2.26A7.46,7.46,0,0,1,19,10.88l0,0,.18.18a1.15,1.15,0,0,0,1.63,0l.18-.18A7.7,7.7,0,0,1,31.89,21.79L20,33.58,8.12,21.79A7.74,7.74,0,0,1,8.12,10.91Z"/></g></g></svg>