<svg width="95" height="16" viewBox="0 0 95 16" fill="none" xmlns="http://www.w3.org/2000/svg">
    <path d="M6.93527 10.1985C7.64871 9.5901 8.14093 8.75499 8.27366 7.80928C8.30684 7.60465 8.32344 7.39449 8.32344 7.18433C8.32344 6.89121 8.27366 6.59809 8.18517 6.3105C8.08009 5.91784 7.90865 5.54729 7.68743 5.20993L7.69849 5.22099L8.52806 4.31399L7.05695 2.96454L6.22737 3.87154L6.2329 3.87707C5.64113 3.5563 4.96088 3.36274 4.23638 3.35168C4.22532 3.35168 4.21426 3.35168 4.2032 3.35168C4.19214 3.35168 4.18661 3.35168 4.17554 3.35168C4.17001 3.35168 4.16448 3.35168 4.15895 3.35168C2.00205 3.36274 0 4.70112 0 7.31153C0 9.71731 1.65363 11.2271 4.19767 11.2271C5.59689 11.2271 6.08357 11.8078 6.08357 12.5655C6.08357 13.5223 5.17104 13.9979 4.16448 13.9979C3.10815 13.9979 2.29517 13.6219 2.21221 12.4273H0.11061C0.0608357 14.6782 1.46559 16 4.17001 16C6.29373 16 8.38427 14.8828 8.38427 12.5711C8.38427 12.1507 8.38427 10.9672 6.93527 10.1985ZM2.18456 7.31153C2.18456 6.05057 3.04732 5.35925 4.19767 5.35925C5.31483 5.35925 6.14994 6.22202 6.14994 7.31153C6.14994 8.5559 5.22081 9.16978 4.19767 9.16978C3.05285 9.16425 2.18456 8.44529 2.18456 7.31153Z" fill="white"/>
    <path d="M9.80664 7.30036C9.80664 4.73973 11.5543 3.19672 13.8163 3.19672C14.8671 3.19672 15.8017 3.56173 16.2497 4.2807L16.3271 3.37369H18.473V11.227H16.4046L16.2774 10.2426C15.7685 11.133 14.6237 11.4648 13.8605 11.4648C11.5045 11.4648 9.80664 9.88865 9.80664 7.30036ZM16.2442 7.37779C16.2442 6.24956 15.5141 5.21536 14.1592 5.21536C13.0143 5.21536 12.0907 5.99516 12.0907 7.30036C12.0907 8.60557 13.0143 9.36878 14.1592 9.36878C15.4478 9.36878 16.2442 8.35116 16.2442 7.37779Z" fill="white"/>
    <path d="M19.7565 3.37369H21.7586L21.9189 4.26411C22.4278 3.42347 23.285 3.19672 23.9874 3.19672C24.828 3.19672 25.7848 3.52855 26.2936 4.6623C26.996 3.57832 27.726 3.19672 28.8874 3.19672C30.5244 3.19672 32.0177 3.99311 32.0177 6.93535V11.227H29.7114V6.97959C29.7114 5.97857 29.457 5.34256 28.5169 5.34256C27.6098 5.34256 27.1785 6.12236 27.1785 7.01278V11.227H24.922V7.01278C24.922 5.97857 24.4132 5.29278 23.4564 5.29278C22.5494 5.29278 22.0406 6.13342 22.0406 7.02384V11.227H19.751V3.37369H19.7565Z" fill="white"/>
    <path d="M35.4905 10.2255L35.3467 11.2266H33.2949V0.0936279H35.6012V4.32448C36.2869 3.48384 37.1276 3.19625 38.0678 3.19625C40.374 3.19625 41.9778 4.75586 41.9778 7.2999C41.9778 9.74992 40.4016 11.4644 38.0954 11.4644C37.0944 11.4644 36.204 11.2598 35.4905 10.2255ZM39.6716 7.2999C39.6716 6.10531 38.9416 5.28126 37.747 5.28126C36.6796 5.28126 35.6343 5.96704 35.6343 7.2999C35.6343 8.79314 36.7183 9.31854 37.747 9.31854C38.9692 9.31854 39.6716 8.42813 39.6716 7.2999Z" fill="white"/>
    <path d="M43.2559 1.28861C43.2559 0.414789 43.9085 0 44.5611 0C45.2137 0 45.8663 0.414789 45.8663 1.28861C45.8663 2.16243 45.2137 2.57722 44.5611 2.57722C43.9085 2.57722 43.2559 2.16243 43.2559 1.28861ZM43.4162 3.37362H45.7059V11.227H43.4162V3.37362Z" fill="white"/>
    <path d="M47.1455 7.31696C47.1455 4.94989 48.8323 3.19672 51.4372 3.19672C54.0587 3.19672 55.7455 4.94436 55.7455 7.31696C55.7455 9.82781 54.1084 11.4814 51.4372 11.4814C48.766 11.4814 47.1455 9.82781 47.1455 7.31696ZM53.4282 7.31696C53.4282 6.33252 52.8254 5.24854 51.4427 5.24854C50.0933 5.24854 49.4683 6.33252 49.4683 7.31696C49.4683 8.38435 50.0435 9.44621 51.4427 9.44621C52.8419 9.44621 53.4282 8.42859 53.4282 7.31696Z" fill="white"/>
    <path d="M70.8008 8.51562H68.418L67.8828 10H67.1094L69.2812 4.3125H69.9375L72.1133 10H71.3438L70.8008 8.51562ZM68.6445 7.89844H70.5781L69.6094 5.23828L68.6445 7.89844ZM73.3589 10V4.3125H74.9644C75.4592 4.3125 75.8967 4.42188 76.2769 4.64062C76.6571 4.85938 76.9501 5.17057 77.1558 5.57422C77.3641 5.97786 77.4696 6.44141 77.4722 6.96484V7.32812C77.4722 7.86458 77.368 8.33464 77.1597 8.73828C76.954 9.14193 76.6584 9.45182 76.273 9.66797C75.8902 9.88411 75.4435 9.99479 74.9331 10H73.3589ZM74.1089 4.92969V9.38672H74.898C75.4761 9.38672 75.9253 9.20703 76.2456 8.84766C76.5685 8.48828 76.73 7.97656 76.73 7.3125V6.98047C76.73 6.33464 76.5777 5.83333 76.273 5.47656C75.9709 5.11719 75.5412 4.9349 74.9839 4.92969H74.1089ZM80.0577 4.3125L81.917 8.95312L83.7764 4.3125H84.7491V10H83.9991V7.78516L84.0694 5.39453L82.2022 10H81.628L79.7647 5.40625L79.8389 7.78516V10H79.0889V4.3125H80.0577ZM87.358 10H86.608V4.3125H87.358V10ZM93.5841 10H92.8302L89.9669 5.61719V10H89.213V4.3125H89.9669L92.838 8.71484V4.3125H93.5841V10Z" fill="#FEC300"/>
</svg>