<?xml version="1.0" encoding="UTF-8"?>
<svg width="79px" height="55px" viewBox="0 0 79 55" version="1.1" xmlns="http://www.w3.org/2000/svg" xmlns:xlink="http://www.w3.org/1999/xlink">
  <g stroke="none" stroke-width="1" fill="none" fill-rule="evenodd">
    <g transform="translate(-184.000000, -598.000000)">
      <g transform="translate(40.000000, 124.000000)">
        <g transform="translate(144.000000, 474.000000)">
          <g transform="translate(4.000000, 12.000000)">
            <g transform="translate(23.000000, 0.000000)">
              <g transform="translate(4.000000, 4.000000)" fill="#ffffff" fill-rule="nonzero">
                <path d="M7.99993638,6.81818182 C8.91889724,6.81818182 9.66666667,6.0535478 9.66666667,5.11370145 C9.66666667,4.17372493 8.91889724,3.40909091 7.99993638,3.40909091 C7.08097546,3.40909091 6.33333333,4.17372493 6.33333333,5.11370145 C6.33333333,6.0535478 7.08097546,6.81818182 7.99993638,6.81818182 Z M7.99993638,4.40881667 C8.37999415,4.40881667 8.68915702,4.725006 8.68915702,5.11370145 C8.68915702,5.50226672 8.37999415,5.81845606 7.99993638,5.81845606 C7.62000585,5.81845606 7.31084298,5.50226672 7.31084298,5.11370145 C7.31084298,4.725006 7.62000585,4.40881667 7.99993638,4.40881667 Z"></path>
                <path d="M17.0337525,0 L0.966247542,0 C0.617258716,0 0.333333333,0.286485677 0.333333333,0.638621506 L0.333333333,14.3613785 C0.333333333,14.7135143 0.617258716,15 0.966247542,15 L17.0337525,15 C17.3827413,15 17.6666667,14.7135143 17.6666667,14.3613785 L17.6666667,0.638621506 C17.6666667,0.286485677 17.3827413,0 17.0337525,0 Z M16.6510417,1.02478339 L16.6510417,9.13444944 L13.4568482,5.91131886 C13.2485657,5.70155851 12.9098918,5.70169194 12.7017415,5.91171917 L8.18419394,10.4700037 L5.29852293,7.55844466 C5.19762167,7.45650006 5.06339518,7.40032379 4.92057292,7.40032379 C4.77788289,7.40032379 4.64378866,7.45636664 4.54288737,7.55817781 L1.34895833,10.7809081 L1.34895833,1.02478339 L16.6510417,1.02478339 Z M1.34895833,13.9752166 L1.34895833,12.2301493 L4.92057292,8.62632767 L7.80611165,11.5378867 C7.90714518,11.6398313 8.04137167,11.6961411 8.18419394,11.6961411 C8.3267517,11.6961411 8.46097819,11.6399648 8.56174725,11.5381536 L13.0794271,6.97973561 L16.6511739,10.5836906 L16.6511739,13.9752166 L1.34895833,13.9752166 Z"></path>
              </g>
              <rect stroke="#ffffff" stroke-width="2" x="1" y="1" width="24" height="30"></rect>
              <rect fill="#ffffff" x="6" y="22" width="15" height="2"></rect>
              <rect fill="#ffffff" x="9" y="25" width="8" height="2"></rect>
            </g>
            <g transform="translate(0.000000, 3.000000)">
              <g transform="translate(3.000000, 3.000000)" fill="#ffffff" fill-rule="nonzero">
                <path d="M6.66661365,5.45454545 C7.43241436,5.45454545 8.05555556,4.84283824 8.05555556,4.09096116 C8.05555556,3.33897994 7.43241436,2.72727273 6.66661365,2.72727273 C5.90081288,2.72727273 5.27777778,3.33897994 5.27777778,4.09096116 C5.27777778,4.84283824 5.90081288,5.45454545 6.66661365,5.45454545 Z M6.66661365,3.52705334 C6.98332846,3.52705334 7.24096419,3.7800048 7.24096419,4.09096116 C7.24096419,4.40181338 6.98332846,4.65476484 6.66661365,4.65476484 C6.35000487,4.65476484 6.09236915,4.40181338 6.09236915,4.09096116 C6.09236915,3.7800048 6.35000487,3.52705334 6.66661365,3.52705334 Z"></path>
                <path d="M14.1947937,0 L0.805206285,0 C0.514382263,0 0.277777778,0.229188542 0.277777778,0.510897205 L0.277777778,11.4891028 C0.277777778,11.7708115 0.514382263,12 0.805206285,12 L14.1947937,12 C14.4856177,12 14.7222222,11.7708115 14.7222222,11.4891028 L14.7222222,0.510897205 C14.7222222,0.229188542 14.4856177,0 14.1947937,0 Z M13.8758681,0.819826711 L13.8758681,7.30755955 L11.2140401,4.72905509 C11.0404714,4.56124681 10.7582432,4.56135355 10.5847846,4.72937534 L6.82016161,8.37600297 L4.41543578,6.04675573 C4.33135139,5.96520005 4.21949599,5.92025904 4.10047743,5.92025904 C3.98156907,5.92025904 3.86982389,5.96509331 3.78573947,6.04654225 L1.12413194,8.62472645 L1.12413194,0.819826711 L13.8758681,0.819826711 Z M1.12413194,11.1801733 L1.12413194,9.7841194 L4.10047743,6.90106214 L6.50509304,9.23030938 C6.58928765,9.31186506 6.70114306,9.35691284 6.82016161,9.35691284 C6.93895975,9.35691284 7.05081516,9.3119718 7.13478937,9.23052289 L10.8995226,5.58378849 L13.8759783,8.4669525 L13.8759783,11.1801733 L1.12413194,11.1801733 Z"></path>
              </g>
              <rect stroke="#ffffff" stroke-width="2" x="1" y="1" width="19" height="24"></rect>
              <rect fill="#ffffff" x="5" y="18" width="12" height="2"></rect>
              <rect fill="#ffffff" x="8" y="20" width="6" height="2"></rect>
            </g>
            <g transform="translate(51.000000, 3.000000)">
              <g transform="translate(3.000000, 3.000000)" fill="#ffffff" fill-rule="nonzero">
                <path d="M6.66661365,5.45454545 C7.43241436,5.45454545 8.05555556,4.84283824 8.05555556,4.09096116 C8.05555556,3.33897994 7.43241436,2.72727273 6.66661365,2.72727273 C5.90081288,2.72727273 5.27777778,3.33897994 5.27777778,4.09096116 C5.27777778,4.84283824 5.90081288,5.45454545 6.66661365,5.45454545 Z M6.66661365,3.52705334 C6.98332846,3.52705334 7.24096419,3.7800048 7.24096419,4.09096116 C7.24096419,4.40181338 6.98332846,4.65476484 6.66661365,4.65476484 C6.35000487,4.65476484 6.09236915,4.40181338 6.09236915,4.09096116 C6.09236915,3.7800048 6.35000487,3.52705334 6.66661365,3.52705334 Z"></path>
                <path d="M14.1947937,0 L0.805206285,0 C0.514382263,0 0.277777778,0.229188542 0.277777778,0.510897205 L0.277777778,11.4891028 C0.277777778,11.7708115 0.514382263,12 0.805206285,12 L14.1947937,12 C14.4856177,12 14.7222222,11.7708115 14.7222222,11.4891028 L14.7222222,0.510897205 C14.7222222,0.229188542 14.4856177,0 14.1947937,0 Z M13.8758681,0.819826711 L13.8758681,7.30755955 L11.2140401,4.72905509 C11.0404714,4.56124681 10.7582432,4.56135355 10.5847846,4.72937534 L6.82016161,8.37600297 L4.41543578,6.04675573 C4.33135139,5.96520005 4.21949599,5.92025904 4.10047743,5.92025904 C3.98156907,5.92025904 3.86982389,5.96509331 3.78573947,6.04654225 L1.12413194,8.62472645 L1.12413194,0.819826711 L13.8758681,0.819826711 Z M1.12413194,11.1801733 L1.12413194,9.7841194 L4.10047743,6.90106214 L6.50509304,9.23030938 C6.58928765,9.31186506 6.70114306,9.35691284 6.82016161,9.35691284 C6.93895975,9.35691284 7.05081516,9.3119718 7.13478937,9.23052289 L10.8995226,5.58378849 L13.8759783,8.4669525 L13.8759783,11.1801733 L1.12413194,11.1801733 Z"></path>
              </g>
              <rect stroke="#ffffff" stroke-width="2" x="1" y="1" width="19" height="24"></rect>
              <rect fill="#ffffff" x="5" y="18" width="12" height="2"></rect>
              <rect fill="#ffffff" x="8" y="20" width="6" height="2"></rect>
            </g>
          </g>
        </g>
      </g>
    </g>
  </g>
</svg>