<svg id="Ebene_1" data-name="Ebene 1" xmlns="http://www.w3.org/2000/svg" viewBox="0 0 100 100"><defs><style>.cls-1{fill:#fff;}</style></defs><title>gambio-logo-symbol-kreis-weiss-freisteller</title><path class="cls-1" d="M49.92,28.76c-5.66,0-9.93,3.41-9.93,9.61,0,5.58,4.27,9.15,9.93,9.15,5,0,9.61-3,9.61-9.15A9.46,9.46,0,0,0,49.92,28.76Z"/><path class="cls-1" d="M50,0a50,50,0,1,0,50,50A50,50,0,0,0,50,0ZM69.46,33.18a14.42,14.42,0,0,1,.77,4.57,19.56,19.56,0,0,1-6.86,14.84c7.16,3.78,7.17,9.8,7.17,11.85,0,11.4-10.31,17.08-20.78,17.08-13.34,0-20.24-6.25-20-17.25H40.15c.38,5,4.42,7.4,9.61,7.4,5,0,9.46-2.67,9.46-7.4,0-3.73-2.4-6.59-9.3-6.59-12.57,0-20.71-7.45-20.71-19.31,0-12.86,9.87-19.45,20.49-19.53h.22l.27,0A21.23,21.23,0,0,1,60,21.47l-.06-.06L64,17l7.26,6.65-4.09,4.46L67.05,28A19,19,0,0,1,69.46,33.18Z"/></svg>