<svg id="Ebene_1" data-name="Ebene 1" xmlns="http://www.w3.org/2000/svg" viewBox="0 0 100 100"><defs><style>.cls-1{fill:#fff;}</style></defs><title>gambio-logo-kasten-freisteller-weiss</title><path class="cls-1" d="M49.81,28.76c-5.66,0-9.92,3.41-9.92,9.61,0,5.58,4.26,9.15,9.92,9.15,5,0,9.61-3,9.61-9.15A9.46,9.46,0,0,0,49.81,28.76Z"/><path class="cls-1" d="M0,0V100H100V0ZM69.35,33.18a14.42,14.42,0,0,1,.77,4.57,19.67,19.67,0,0,1-.35,3.7,19,19,0,0,1-6.51,11.14,12.6,12.6,0,0,1,7.17,12c0,11.4-10.31,17.26-20.77,17.26-13.34,0-20.24-5.88-20-16.88H40c.39,5,4.42,7,9.62,7,5,0,9.45-3,9.45-7.77,0-3.73-2.4-6.59-9.3-6.59-12.56,0-20.7-7.45-20.7-19.31,0-12.86,9.87-19.45,20.49-19.53h.21l.27,0a21.16,21.16,0,0,1,9.78,2.61l0-.06L63.9,17l7.25,6.65-4.09,4.46L66.94,28A18.71,18.71,0,0,1,69.35,33.18Z"/></svg>