<?xml version="1.0" encoding="UTF-8"?>
<svg width="79px" height="55px" viewBox="0 0 79 55" version="1.1" xmlns="http://www.w3.org/2000/svg" xmlns:xlink="http://www.w3.org/1999/xlink">
    <g stroke="none" stroke-width="1" fill="none" fill-rule="evenodd">
        <g transform="translate(-184.000000, -204.000000)">
            <g transform="translate(40.000000, 124.000000)">
                <g transform="translate(144.000000, 80.000000)">
                    <g transform="translate(8.000000, 16.000000)">
                        <path d="M62,9.97674166 L62,5 C62,2.790861 60.209139,1 58,1 L5,1 C2.790861,1 1,2.790861 1,5 L1,11 C1,13.209139 2.790861,15 5,15 L56,15 L56,7.21046127 L62,9.97674166 Z" id="Combined-Shape" stroke="#ffffff" stroke-width="2"></path>
                        <g transform="translate(56.000000, 6.000000)" fill="#ffffff" fill-rule="nonzero">
                            <path d="M12.994509,8.24379016 C13.0259474,8.00487679 12.9211652,7.75558864 12.7115638,7.63094456 L0.96408499,0.100352609 C0.775454842,-0.0242914692 0.523947977,-0.0346662558 0.324850705,0.079566376 C0.125753432,0.193835668 0,0.401551358 0,0.630089942 L0,13.9462201 C0,14.1851335 0.136220556,14.3928491 0.345821939,14.5071184 C0.555423322,14.6109763 0.81739731,14.5902267 1.00602746,14.4447964 L4.33849342,11.9727011 L7.38801415,16.709176 C7.50330046,16.8961422 7.71286485,17 7.92246624,17 C8.02724844,17 8.14253474,16.968839 8.23684982,16.9168917 L11.3492473,15.1303388 C11.4959719,15.0472306 11.6007541,14.9018369 11.6426596,14.7356204 C11.6845651,14.5694405 11.6531267,14.3928491 11.5588117,14.2578303 L8.71889231,9.82259071 L12.554372,8.75274126 C12.7849076,8.68004444 12.9630707,8.48266687 12.994509,8.24379016 Z M7.55567306,8.84622432 C7.36704292,8.89817157 7.20985113,9.04356522 7.13650729,9.22015656 C7.06316345,9.40712267 7.08409769,9.61487502 7.18891688,9.78105491 L10.1231513,14.3720996 L8.10062926,15.5354321 L5.03013729,10.7366351 C4.93582222,10.5912048 4.78909755,10.4873469 4.61097151,10.4561859 C4.56906603,10.4458111 4.53762767,10.4458111 4.49568521,10.4458111 C4.35946465,10.4458111 4.23371122,10.4873469 4.11842491,10.5704552 L1.2470672,12.6997793 L1.2470672,1.77267288 L10.8672048,7.93217997 L7.55567306,8.84622432 Z"></path>
                        </g>
                    </g>
                </g>
            </g>
        </g>
    </g>
</svg>