<svg xmlns="http://www.w3.org/2000/svg" viewBox="0 0 103 24"><defs><style>.cls-1{fill:none;}</style></defs><title>malibu</title><g id="Ebene_2" data-name="Ebene 2"><g id="Ebene_1-2" data-name="Ebene 1"><path d="M12.54,7.23A8.57,8.57,0,0,1,15,7.58a6,6,0,0,1,2.06,1,8.83,8.83,0,0,1,2-1A9.08,9.08,0,0,1,24,7.53a5.72,5.72,0,0,1,1.95,1,4.58,4.58,0,0,1,1.37,1.71,6,6,0,0,1,.51,2.59v9.45a7.06,7.06,0,0,1-.95.18,9.58,9.58,0,0,1-1.33.09,7.12,7.12,0,0,1-1.19-.09,2,2,0,0,1-.88-.36,1.73,1.73,0,0,1-.56-.73,3.22,3.22,0,0,1-.19-1.22V12.93a1.56,1.56,0,0,0-.51-1.3,2.16,2.16,0,0,0-1.38-.41,2.41,2.41,0,0,0-.9.2,2.59,2.59,0,0,0-.72.4,1,1,0,0,1,0,.23V22.23a8.52,8.52,0,0,1-1,.18,9.36,9.36,0,0,1-1.3.09,7.12,7.12,0,0,1-1.19-.09,2,2,0,0,1-.88-.36,1.73,1.73,0,0,1-.56-.73,3.22,3.22,0,0,1-.19-1.22V12.93a1.5,1.5,0,0,0-.56-1.3,2.19,2.19,0,0,0-1.33-.41,2.38,2.38,0,0,0-.93.17,7.06,7.06,0,0,0-.66.31V22.23a7.06,7.06,0,0,1-1,.18,9.58,9.58,0,0,1-1.33.09,7.12,7.12,0,0,1-1.19-.09,2,2,0,0,1-.88-.36,1.73,1.73,0,0,1-.56-.73,3.22,3.22,0,0,1-.19-1.22V11a2.17,2.17,0,0,1,.34-1.29,3.93,3.93,0,0,1,1-.9A8.6,8.6,0,0,1,9.37,7.68,11.09,11.09,0,0,1,12.54,7.23Z"/><path d="M36.93,7.23a12.27,12.27,0,0,1,3,.33,6.61,6.61,0,0,1,2.28,1,4.55,4.55,0,0,1,1.46,1.71,5.45,5.45,0,0,1,.51,2.44v6.72a1.88,1.88,0,0,1-.44,1.28,4.29,4.29,0,0,1-1,.85,10.72,10.72,0,0,1-5.49,1.17,12.59,12.59,0,0,1-2.87-.3,6.8,6.8,0,0,1-2.19-.9A4.13,4.13,0,0,1,30.7,20a4.53,4.53,0,0,1-.49-2.16,4.06,4.06,0,0,1,1.23-3.18,6.63,6.63,0,0,1,3.81-1.38l3.93-.42v-.21a1.28,1.28,0,0,0-.77-1.24,5.11,5.11,0,0,0-2.2-.38,10.2,10.2,0,0,0-2.22.24,11.8,11.8,0,0,0-2,.6,2.06,2.06,0,0,1-.66-.82,2.63,2.63,0,0,1-.27-1.16,1.91,1.91,0,0,1,.37-1.24,2.93,2.93,0,0,1,1.16-.8,9,9,0,0,1,2-.48A17.92,17.92,0,0,1,36.93,7.23ZM37.17,19a6.63,6.63,0,0,0,1.12-.1,2.76,2.76,0,0,0,.92-.29v-2.4l-2.16.18a3.32,3.32,0,0,0-1.38.36,1,1,0,0,0-.54.9,1.2,1.2,0,0,0,.46,1A2.57,2.57,0,0,0,37.17,19Z"/><path d="M52.44,22.23l-1,.17a8,8,0,0,1-1.3.1A7.12,7.12,0,0,1,49,22.41a2,2,0,0,1-.88-.36,1.73,1.73,0,0,1-.56-.73,3.22,3.22,0,0,1-.19-1.22V2.7l1-.16a8.17,8.17,0,0,1,1.31-.11,7,7,0,0,1,1.18.09,2,2,0,0,1,.89.36,1.74,1.74,0,0,1,.55.74,3.15,3.15,0,0,1,.2,1.21Z"/><path d="M55.53,3.63a2.63,2.63,0,0,1,.76-1.92,3,3,0,0,1,4.05,0,2.64,2.64,0,0,1,.77,1.92,2.64,2.64,0,0,1-.77,1.92,3,3,0,0,1-4.05,0A2.63,2.63,0,0,1,55.53,3.63Zm5.34,18.6-1,.17a8,8,0,0,1-1.3.1,7.12,7.12,0,0,1-1.19-.09,2,2,0,0,1-.88-.36,1.73,1.73,0,0,1-.56-.73,3.22,3.22,0,0,1-.19-1.22V7.89l1-.16a8.17,8.17,0,0,1,1.31-.11,7,7,0,0,1,1.18.09,2,2,0,0,1,.89.36,1.74,1.74,0,0,1,.55.74,3.15,3.15,0,0,1,.2,1.21Z"/><path d="M64.17,2.73a8.4,8.4,0,0,1,1-.19,8.58,8.58,0,0,1,1.35-.11,7,7,0,0,1,1.18.09,2,2,0,0,1,.89.36,1.64,1.64,0,0,1,.54.74,3.39,3.39,0,0,1,.18,1.21V7.77a7.25,7.25,0,0,1,1.42-.42,8.57,8.57,0,0,1,1.49-.12,7.36,7.36,0,0,1,2.73.51,6.77,6.77,0,0,1,2.28,1.49,6.88,6.88,0,0,1,1.56,2.41A9,9,0,0,1,79.32,15a9.12,9.12,0,0,1-.59,3.41,6.47,6.47,0,0,1-1.63,2.41,7,7,0,0,1-2.57,1.46,12,12,0,0,1-6.7,0,8.81,8.81,0,0,1-2.34-1.16,2.82,2.82,0,0,1-1.32-2.4Zm7,16a2.59,2.59,0,0,0,2.14-.94A4.4,4.4,0,0,0,74.1,15a4.31,4.31,0,0,0-.78-2.82,2.6,2.6,0,0,0-2.1-.93,4,4,0,0,0-1,.12,5.94,5.94,0,0,0-.94.36v6.54a3,3,0,0,0,.79.35A4.26,4.26,0,0,0,71.19,18.72Z"/><path d="M81.81,7.89a6.85,6.85,0,0,1,.94-.18,9.73,9.73,0,0,1,1.34-.09,7,7,0,0,1,1.18.09,2,2,0,0,1,.89.36,1.74,1.74,0,0,1,.55.74,3.15,3.15,0,0,1,.2,1.21v6.45a2.24,2.24,0,0,0,.6,1.76,2.57,2.57,0,0,0,1.74.52,4.3,4.3,0,0,0,1.12-.12,4,4,0,0,0,.68-.24V7.89A6.85,6.85,0,0,1,92,7.71a9.73,9.73,0,0,1,1.34-.09,7,7,0,0,1,1.18.09,2,2,0,0,1,.89.36,1.74,1.74,0,0,1,.55.74,3.15,3.15,0,0,1,.2,1.21v9.12a2.45,2.45,0,0,1-1.26,2.25,8.29,8.29,0,0,1-2.51,1,13.67,13.67,0,0,1-3.16.34,11.73,11.73,0,0,1-3-.36,6.64,6.64,0,0,1-2.35-1.11,5,5,0,0,1-1.53-1.93,6.9,6.9,0,0,1-.54-2.87Z"/><rect class="cls-1" width="103" height="24"/></g></g></svg>