<?xml version="1.0" encoding="UTF-8"?>
<svg width="79px" height="55px" viewBox="0 0 79 55" version="1.1" xmlns="http://www.w3.org/2000/svg" xmlns:xlink="http://www.w3.org/1999/xlink">
    <g stroke="none" stroke-width="1" fill="none" fill-rule="evenodd">
        <g transform="translate(-184.000000, -124.000000)" fill="#ffffff" fill-rule="nonzero">
            <g transform="translate(40.000000, 124.000000)">
                <g transform="translate(144.000000, 0.000000)">
                    <g transform="translate(21.000000, 12.000000)">
                        <path d="M16.4998664,14 C18.4296842,14 20,12.4299515 20,10.5001336 C20,8.57004852 18.4296842,7 16.4998664,7 C14.5700485,7 13,8.57004852 13,10.5001336 C13,12.4299515 14.5700485,14 16.4998664,14 Z M16.4998664,9.05277023 C17.2979877,9.05277023 17.9472297,9.70201233 17.9472297,10.5001336 C17.9472297,11.2979877 17.2979877,11.9472298 16.4998664,11.9472298 C15.7020123,11.9472298 15.0527703,11.2979877 15.0527703,10.5001336 C15.0527703,9.70201233 15.7020123,9.05277023 16.4998664,9.05277023 Z"></path>
                        <path d="M35.6489716,0 L1.35102841,0 C0.60607149,0 0,0.5920704 0,1.31981778 L0,29.6801821 C0,30.4079296 0.60607149,31 1.35102841,31 L35.6489716,31 C36.3939285,31 37,30.4079296 37,29.6801821 L37,1.31981778 C37,0.5920704 36.3939285,0 35.6489716,0 Z M34.8320312,2.11788567 L34.8320312,18.8778622 L28.0136567,12.2167256 C27.5690537,11.7832209 26.8461151,11.7834967 26.4017944,12.217553 L16.7585678,21.6380077 L10.5987701,15.6207856 C10.3833847,15.4101001 10.0968628,15.2940025 9.79199219,15.2940025 C9.48740385,15.2940025 9.20116426,15.4098244 8.98577881,15.6202341 L2.16796875,22.2805433 L2.16796875,2.11788567 L34.8320312,2.11788567 Z M2.16796875,28.8821143 L2.16796875,25.2756418 L9.79199219,17.8277439 L15.9515076,23.8449659 C16.1671753,24.0556514 16.4536972,24.1720248 16.7585678,24.1720248 C17.0628738,24.1720248 17.3493958,24.0559272 17.5644989,23.8455175 L27.2080078,14.4247869 L34.8323135,21.8729606 L34.8323135,28.8821143 L2.16796875,28.8821143 Z"></path>
                    </g>
                </g>
            </g>
        </g>
    </g>
</svg>