<?xml version="1.0" encoding="UTF-8" standalone="no"?>
<svg
   xmlns:dc="http://purl.org/dc/elements/1.1/"
   xmlns:cc="http://creativecommons.org/ns#"
   xmlns:rdf="http://www.w3.org/1999/02/22-rdf-syntax-ns#"
   xmlns:svg="http://www.w3.org/2000/svg"
   xmlns="http://www.w3.org/2000/svg"
   version="1.1"
   id="svg2"
   viewBox="0 0 394.99999 757.00002"
   height="213.64223mm"
   width="111.47778mm">
  <title
     id="title4152">StyleEdit v3 Tablet</title>
  <defs
     id="defs4" />
  <metadata
     id="metadata7">
    <rdf:RDF>
      <cc:Work
         rdf:about="">
        <dc:format>image/svg+xml</dc:format>
        <dc:type
           rdf:resource="http://purl.org/dc/dcmitype/StillImage" />
        <dc:title>StyleEdit v3 Tablet</dc:title>
        <dc:date>08.12.2015</dc:date>
        <dc:creator>
          <cc:Agent>
            <dc:title>Gambio GmbH</dc:title>
          </cc:Agent>
        </dc:creator>
        <dc:rights>
          <cc:Agent>
            <dc:title>All Rights Reserved</dc:title>
          </cc:Agent>
        </dc:rights>
      </cc:Work>
    </rdf:RDF>
  </metadata>
  <g
     transform="translate(-124.36721,-88.855445)"
     id="layer1">
    <path
       id="rect4194"
       transform="translate(-149.91795,69.998023)"
       d="m 294.28516,18.857422 c -11.08,0 -20,8.92 -20,20 l 0,716.999998 c 0,11.08 8.92,20 20,20 l 355,0 c 11.08,0 20,-8.92 20,-20 l 0,-716.999998 c 0,-11.08 -8.92,-20 -20,-20 l -355,0 z m 141.07226,23.515625 72.85742,0 0,7.142578 -72.85742,0 0,-7.142578 z m -151.07226,31.054687 375,0 0,626.999996 -375,0 0,-626.999996 z m 187.5,633.857426 a 29.285715,29.285715 0 0 1 29.28711,29.28711 29.285715,29.285715 0 0 1 -29.28711,29.28515 A 29.285715,29.285715 0 0 1 442.5,736.57227 29.285715,29.285715 0 0 1 471.78516,707.28516 Z"
       style="fill:#000000;fill-opacity:0.78431373" />
  </g>
</svg>
