<?xml version="1.0" encoding="UTF-8" standalone="no"?>
<!-- Created with Inkscape (http://www.inkscape.org/) -->

<svg
   xmlns:dc="http://purl.org/dc/elements/1.1/"
   xmlns:cc="http://creativecommons.org/ns#"
   xmlns:rdf="http://www.w3.org/1999/02/22-rdf-syntax-ns#"
   xmlns:svg="http://www.w3.org/2000/svg"
   xmlns="http://www.w3.org/2000/svg"
   xmlns:sodipodi="http://sodipodi.sourceforge.net/DTD/sodipodi-0.dtd"
   xmlns:inkscape="http://www.inkscape.org/namespaces/inkscape"
   width="317.21777mm"
   height="228.03555mm"
   viewBox="0 0 1124 808"
   id="svg2"
   version="1.1"
   inkscape:version="0.91 r13725"
   sodipodi:docname="tablet-landscape-preview-frame.svg">
  <title
     id="title4152">StyleEdit v3 Tablet</title>
  <defs
     id="defs4" />
  <sodipodi:namedview
     id="base"
     pagecolor="#ffffff"
     bordercolor="#666666"
     borderopacity="1.0"
     inkscape:pageopacity="0.0"
     inkscape:pageshadow="2"
     inkscape:zoom="0.49497475"
     inkscape:cx="-88.894802"
     inkscape:cy="362.80906"
     inkscape:document-units="px"
     inkscape:current-layer="layer1"
     showgrid="false"
     fit-margin-top="0"
     fit-margin-left="0"
     fit-margin-right="0"
     fit-margin-bottom="0"
     inkscape:window-width="1920"
     inkscape:window-height="971"
     inkscape:window-x="0"
     inkscape:window-y="32"
     inkscape:window-maximized="1" />
  <metadata
     id="metadata7">
    <rdf:RDF>
      <cc:Work
         rdf:about="">
        <dc:format>image/svg+xml</dc:format>
        <dc:type
           rdf:resource="http://purl.org/dc/dcmitype/StillImage" />
        <dc:title>StyleEdit v3 Tablet</dc:title>
        <dc:date>08.12.2015</dc:date>
        <dc:creator>
          <cc:Agent>
            <dc:title>Gambio GmbH</dc:title>
          </cc:Agent>
        </dc:creator>
        <dc:rights>
          <cc:Agent>
            <dc:title>All Rights Reserved</dc:title>
          </cc:Agent>
        </dc:rights>
      </cc:Work>
    </rdf:RDF>
  </metadata>
  <g
     inkscape:label="Layer 1"
     inkscape:groupmode="layer"
     id="layer1"
     transform="translate(149.91795,-55.712869)">
    <path
       style="opacity:1;fill:#000000;fill-opacity:0.78431373"
       d="m -149.91795,76.753885 c 0,-11.657082 9.79109,-21.041016 21.95313,-21.041016 l 1080.09373,0 c 12.1621,0 21.9531,9.383934 21.9531,21.041016 l 0,765.916015 c 0,11.65708 -9.7911,21.04297 -21.9531,21.04297 l -1080.09373,0 c -12.16204,0 -21.95313,-9.38589 -21.95313,-21.04297 l 0,-765.916015 z m 24.28516,-1.041016 0,768.000001 1024,0 0,-768.000001 -1024,0 z m 1037.623,384.000001 a 24.234953,24.234953 0 0 0 24.2344,24.23438 24.234953,24.234953 0 0 0 24.2344,-24.23438 24.234953,24.234953 0 0 0 -24.2344,-24.23438 24.234953,24.234953 0 0 0 -24.2344,24.23438 z"
       id="rect4136"
       inkscape:connector-curvature="0" />
  </g>
</svg>
